<?xml version="1.0" encoding="UTF-8" standalone="no"?>
<!DOCTYPE svg PUBLIC "-//W3C//DTD SVG 1.1//EN" "http://www.w3.org/Graphics/SVG/1.1/DTD/svg11.dtd">
<svg version="1.1" xmlns="http://www.w3.org/2000/svg" xmlns:xlink="http://www.w3.org/1999/xlink" preserveAspectRatio="xMidYMid meet" viewBox="0 0 640 640" width="640" height="640"><defs><path d="M187.21 133.11L436.39 133.11L436.39 139.67L187.21 139.67L187.21 133.11Z" id="b8kNM8P1SQ"></path><path d="M187.21 280.82L436.39 280.82L436.39 287.38L187.21 287.38L187.21 280.82Z" id="f5xvSj0bDe"></path><path d="M462.79 280.82L607.05 280.82L607.05 287.38L462.79 287.38L462.79 280.82Z" id="aSrBZqGl"></path><path d="M13.11 280.82L157.38 280.82L157.38 287.38L13.11 287.38L13.11 280.82Z" id="a1RO2zdf2"></path><path d="M175.18 139.72L174.08 274.98L167.61 274.92L168.71 139.67L175.18 139.72Z" id="a160jLNCct"></path><path d="M452.39 139.72L451.29 274.98L444.82 274.92L445.92 139.67L452.39 139.72Z" id="aCi9KCgCJ"></path><path d="M452.39 310.54L451.29 445.8L444.82 445.74L445.92 310.49L452.39 310.54Z" id="a13a0JDr3i"></path><path d="M175.18 310.54L174.08 445.8L167.61 445.74L168.71 310.49L175.18 310.54Z" id="b185mMAfph"></path><path d="M610.83 310.54L609.73 445.8L603.27 445.74L604.37 310.49L610.83 310.54Z" id="a6M1kfDQIx"></path><path d="M16.9 310.54L15.8 445.8L9.33 445.74L10.43 310.49L16.9 310.54Z" id="b1IHrYl9sr"></path><path d="M13.11 468.69L157.38 468.69L157.38 475.25L13.11 475.25L13.11 468.69Z" id="aLnmxq7NJ"></path><path d="M459 468.69L603.27 468.69L603.27 475.25L459 475.25L459 468.69Z" id="a5PbTOsEc"></path><path d="M187.21 468.69L436.39 468.69L436.39 475.25L187.21 475.25L187.21 468.69Z" id="d1Gv9DPqTp"></path><path d="M167.61 476.38L266.88 582.73L271.61 578.32L172.34 471.97L167.61 476.38Z" id="a49MKJV2W"></path><path d="M346.46 581.6L445.73 475.25L450.46 479.66L351.19 586.01L346.46 581.6Z" id="b50ikGjBrm"></path></defs><g><g><g><use xlink:href="#b8kNM8P1SQ" opacity="1" fill="#5ce039" fill-opacity="1"></use></g><g><use xlink:href="#f5xvSj0bDe" opacity="1" fill="#5ce039" fill-opacity="1"></use></g><g><use xlink:href="#aSrBZqGl" opacity="1" fill="#5ce039" fill-opacity="1"></use></g><g><use xlink:href="#a1RO2zdf2" opacity="1" fill="#5ce039" fill-opacity="1"></use></g><g><use xlink:href="#a160jLNCct" opacity="1" fill="#5ce039" fill-opacity="1"></use></g><g><use xlink:href="#aCi9KCgCJ" opacity="1" fill="#5ce039" fill-opacity="1"></use></g><g><use xlink:href="#a13a0JDr3i" opacity="1" fill="#5ce039" fill-opacity="1"></use></g><g><use xlink:href="#b185mMAfph" opacity="1" fill="#5ce039" fill-opacity="1"></use></g><g><use xlink:href="#a6M1kfDQIx" opacity="1" fill="#5ce039" fill-opacity="1"></use></g><g><use xlink:href="#b1IHrYl9sr" opacity="1" fill="#5ce039" fill-opacity="1"></use></g><g><use xlink:href="#aLnmxq7NJ" opacity="1" fill="#5ce039" fill-opacity="1"></use></g><g><use xlink:href="#a5PbTOsEc" opacity="1" fill="#5ce039" fill-opacity="1"></use></g><g><use xlink:href="#d1Gv9DPqTp" opacity="1" fill="#5ce039" fill-opacity="1"></use></g><g><use xlink:href="#a49MKJV2W" opacity="1" fill="#5ce039" fill-opacity="1"></use></g><g><use xlink:href="#b50ikGjBrm" opacity="1" fill="#5ce039" fill-opacity="1"></use></g></g></g></svg>